# xmcd CD database file
#
# Track frame offsets:
#	150
#	48697
#	71427
#	107527
#	112277
#
# Disc length: 1736 seconds
#
# Revision: 0
# Processed by: cddbd v1.4PL0 Copyright (c) Steve Scherf et al.
# Submitted via: CDex 1.50beta10
#
DISCID=4506c605
DTITLE=Seven Ages - Neuland
DYEAR=1993
DGENRE=New Age
TTITLE0=I hear you calling parts I - IV
TTITLE1=She's never shy
TTITLE2=Cold outside
TTITLE3=Neuland
TTITLE4=She's never shy - Radio Mix
EXTD=YEAR: 1993
EXTT0=
EXTT1=
EXTT2=
EXTT3=
EXTT4=
PLAYORDER=
